{
    "asset" : {
        "generator" : "Khronos glTF Blender I/O v3.4.49",
        "version" : "2.0"
    },
    "scene" : 0,
    "scenes" : [
        {
            "name" : "Scene",
            "nodes" : [
                0
            ]
        }
    ],
    "nodes" : [
        {
            "mesh" : 0,
            "name" : "Wrench"
        }
    ],
    "materials" : [
        {
            "doubleSided" : true,
            "name" : "metal.004",
            "pbrMetallicRoughness" : {
                "baseColorFactor" : [
                    0.33432435989379883,
                    0.33432435989379883,
                    0.33432435989379883,
                    1
                ],
                "metallicFactor" : 0.6891191601753235,
                "roughnessFactor" : 0.5
            }
        }
    ],
    "meshes" : [
        {
            "name" : "Cube.014",
            "primitives" : [
                {
                    "attributes" : {
                        "POSITION" : 0,
                        "TEXCOORD_0" : 1,
                        "NORMAL" : 2
                    },
                    "indices" : 3,
                    "material" : 0
                }
            ]
        }
    ],
    "accessors" : [
        {
            "bufferView" : 0,
            "componentType" : 5126,
            "count" : 694,
            "max" : [
                0.7108850479125977,
                0.027677364647388458,
                0.12455065548419952
            ],
            "min" : [
                -0.7108850479125977,
                -0.027677364647388458,
                -0.1260542869567871
            ],
            "type" : "VEC3"
        },
        {
            "bufferView" : 1,
            "componentType" : 5126,
            "count" : 694,
            "type" : "VEC2"
        },
        {
            "bufferView" : 2,
            "componentType" : 5126,
            "count" : 694,
            "type" : "VEC3"
        },
        {
            "bufferView" : 3,
            "componentType" : 5123,
            "count" : 1254,
            "type" : "SCALAR"
        }
    ],
    "bufferViews" : [
        {
            "buffer" : 0,
            "byteLength" : 8328,
            "byteOffset" : 0,
            "target" : 34962
        },
        {
            "buffer" : 0,
            "byteLength" : 5552,
            "byteOffset" : 8328,
            "target" : 34962
        },
        {
            "buffer" : 0,
            "byteLength" : 8328,
            "byteOffset" : 13880,
            "target" : 34962
        },
        {
            "buffer" : 0,
            "byteLength" : 2508,
            "byteOffset" : 22208,
            "target" : 34963
        }
    ],
    "buffers" : [
        {
            "byteLength" : 24716,
            "uri" : "WrenchFrench.bin"
        }
    ]
}
