{
    "asset" : {
        "generator" : "Khronos glTF Blender I/O v3.4.49",
        "version" : "2.0"
    },
    "extensionsUsed" : [
        "KHR_materials_specular",
        "KHR_materials_ior"
    ],
    "scene" : 0,
    "scenes" : [
        {
            "name" : "Scene",
            "nodes" : [
                0
            ]
        }
    ],
    "nodes" : [
        {
            "mesh" : 0,
            "name" : "TableBlueprint"
        }
    ],
    "materials" : [
        {
            "doubleSided" : true,
            "name" : "wood top.001",
            "pbrMetallicRoughness" : {
                "baseColorFactor" : [
                    0.6981920599937439,
                    0.5861907601356506,
                    0.39255696535110474,
                    1
                ],
                "metallicFactor" : 0,
                "roughnessFactor" : 0.5
            }
        },
        {
            "doubleSided" : true,
            "name" : "metla sides.001",
            "pbrMetallicRoughness" : {
                "baseColorFactor" : [
                    0.06997696310281754,
                    0.015682628378272057,
                    0.019722830504179,
                    1
                ],
                "metallicFactor" : 0,
                "roughnessFactor" : 0.5
            }
        },
        {
            "doubleSided" : true,
            "extensions" : {
                "KHR_materials_specular" : {
                    "specularColorFactor" : [
                        0,
                        0,
                        0
                    ]
                },
                "KHR_materials_ior" : {
                    "ior" : 1.4500000476837158
                }
            },
            "name" : "blueprint",
            "pbrMetallicRoughness" : {
                "baseColorFactor" : [
                    0.023286249488592148,
                    0.32937031984329224,
                    0.8000000715255737,
                    1
                ],
                "metallicFactor" : 0,
                "roughnessFactor" : 0.9196891188621521
            }
        },
        {
            "doubleSided" : true,
            "name" : "white stuff",
            "pbrMetallicRoughness" : {
                "baseColorFactor" : [
                    0.800000011920929,
                    0.800000011920929,
                    0.800000011920929,
                    1
                ],
                "metallicFactor" : 0,
                "roughnessFactor" : 0.5
            }
        },
        {
            "doubleSided" : true,
            "name" : "ceramic.001",
            "pbrMetallicRoughness" : {
                "baseColorFactor" : [
                    0.800000011920929,
                    0.800000011920929,
                    0.800000011920929,
                    1
                ],
                "metallicFactor" : 0.11917097866535187,
                "roughnessFactor" : 0.05440415441989899
            }
        },
        {
            "doubleSided" : true,
            "extensions" : {
                "KHR_materials_specular" : {
                    "specularColorFactor" : [
                        0,
                        0,
                        0
                    ]
                },
                "KHR_materials_ior" : {
                    "ior" : 1.4500000476837158
                }
            },
            "name" : "sustenance.001",
            "pbrMetallicRoughness" : {
                "baseColorFactor" : [
                    0.11927588284015656,
                    0.03126932680606842,
                    0.01347789354622364,
                    1
                ],
                "metallicFactor" : 0
            }
        },
        {
            "doubleSided" : true,
            "name" : "metal.010",
            "pbrMetallicRoughness" : {
                "baseColorFactor" : [
                    0.2810102105140686,
                    0.2810102105140686,
                    0.2810102105140686,
                    1
                ],
                "metallicFactor" : 0.787564754486084,
                "roughnessFactor" : 0.5
            }
        },
        {
            "doubleSided" : true,
            "name" : "handle.002",
            "pbrMetallicRoughness" : {
                "baseColorFactor" : [
                    0.8000000715255737,
                    0.15919309854507446,
                    0.022863946855068207,
                    1
                ],
                "metallicFactor" : 0,
                "roughnessFactor" : 0.5
            }
        },
        {
            "doubleSided" : true,
            "name" : "accent.002",
            "pbrMetallicRoughness" : {
                "baseColorFactor" : [
                    0.7903274893760681,
                    0.8000000715255737,
                    0.010011730715632439,
                    1
                ],
                "metallicFactor" : 0,
                "roughnessFactor" : 0.5
            }
        },
        {
            "doubleSided" : true,
            "name" : "base",
            "pbrMetallicRoughness" : {
                "baseColorFactor" : [
                    0.8000000715255737,
                    0.7431932091712952,
                    0.08887885510921478,
                    1
                ],
                "metallicFactor" : 0,
                "roughnessFactor" : 0.5
            }
        },
        {
            "doubleSided" : true,
            "name" : "tip",
            "pbrMetallicRoughness" : {
                "baseColorFactor" : [
                    0.004241939168423414,
                    0.004241939168423414,
                    0.004241939168423414,
                    1
                ],
                "metallicFactor" : 0,
                "roughnessFactor" : 0.5
            }
        }
    ],
    "meshes" : [
        {
            "name" : "Cube.021",
            "primitives" : [
                {
                    "attributes" : {
                        "POSITION" : 0,
                        "TEXCOORD_0" : 1,
                        "NORMAL" : 2
                    },
                    "indices" : 3,
                    "material" : 0
                },
                {
                    "attributes" : {
                        "POSITION" : 4,
                        "TEXCOORD_0" : 5,
                        "NORMAL" : 6
                    },
                    "indices" : 7,
                    "material" : 1
                },
                {
                    "attributes" : {
                        "POSITION" : 8,
                        "TEXCOORD_0" : 9,
                        "NORMAL" : 10
                    },
                    "indices" : 11,
                    "material" : 2
                },
                {
                    "attributes" : {
                        "POSITION" : 12,
                        "TEXCOORD_0" : 13,
                        "NORMAL" : 14
                    },
                    "indices" : 15,
                    "material" : 3
                },
                {
                    "attributes" : {
                        "POSITION" : 16,
                        "TEXCOORD_0" : 17,
                        "NORMAL" : 18
                    },
                    "indices" : 19,
                    "material" : 4
                },
                {
                    "attributes" : {
                        "POSITION" : 20,
                        "TEXCOORD_0" : 21,
                        "NORMAL" : 22
                    },
                    "indices" : 23,
                    "material" : 5
                },
                {
                    "attributes" : {
                        "POSITION" : 24,
                        "TEXCOORD_0" : 25,
                        "NORMAL" : 26
                    },
                    "indices" : 27,
                    "material" : 6
                },
                {
                    "attributes" : {
                        "POSITION" : 28,
                        "TEXCOORD_0" : 29,
                        "NORMAL" : 30
                    },
                    "indices" : 31,
                    "material" : 7
                },
                {
                    "attributes" : {
                        "POSITION" : 32,
                        "TEXCOORD_0" : 33,
                        "NORMAL" : 34
                    },
                    "indices" : 35,
                    "material" : 8
                },
                {
                    "attributes" : {
                        "POSITION" : 36,
                        "TEXCOORD_0" : 37,
                        "NORMAL" : 38
                    },
                    "indices" : 39,
                    "material" : 9
                },
                {
                    "attributes" : {
                        "POSITION" : 40,
                        "TEXCOORD_0" : 41,
                        "NORMAL" : 42
                    },
                    "indices" : 43,
                    "material" : 10
                }
            ]
        }
    ],
    "accessors" : [
        {
            "bufferView" : 0,
            "componentType" : 5126,
            "count" : 186,
            "max" : [
                1,
                1.0159283876419067,
                2.5
            ],
            "min" : [
                -1,
                0.1400521993637085,
                -2.5
            ],
            "type" : "VEC3"
        },
        {
            "bufferView" : 1,
            "componentType" : 5126,
            "count" : 186,
            "type" : "VEC2"
        },
        {
            "bufferView" : 2,
            "componentType" : 5126,
            "count" : 186,
            "type" : "VEC3"
        },
        {
            "bufferView" : 3,
            "componentType" : 5123,
            "count" : 348,
            "type" : "SCALAR"
        },
        {
            "bufferView" : 4,
            "componentType" : 5126,
            "count" : 520,
            "max" : [
                1,
                1.0159283876419067,
                2.5
            ],
            "min" : [
                -1,
                -0.038118649274110794,
                -2.5
            ],
            "type" : "VEC3"
        },
        {
            "bufferView" : 5,
            "componentType" : 5126,
            "count" : 520,
            "type" : "VEC2"
        },
        {
            "bufferView" : 6,
            "componentType" : 5126,
            "count" : 520,
            "type" : "VEC3"
        },
        {
            "bufferView" : 7,
            "componentType" : 5123,
            "count" : 816,
            "type" : "SCALAR"
        },
        {
            "bufferView" : 8,
            "componentType" : 5126,
            "count" : 758,
            "max" : [
                1.003257155418396,
                1.065073013305664,
                1.26903235912323
            ],
            "min" : [
                -1.038967490196228,
                1.0318536758422852,
                -0.773192286491394
            ],
            "type" : "VEC3"
        },
        {
            "bufferView" : 9,
            "componentType" : 5126,
            "count" : 758,
            "type" : "VEC2"
        },
        {
            "bufferView" : 10,
            "componentType" : 5126,
            "count" : 758,
            "type" : "VEC3"
        },
        {
            "bufferView" : 11,
            "componentType" : 5123,
            "count" : 1188,
            "type" : "SCALAR"
        },
        {
            "bufferView" : 12,
            "componentType" : 5126,
            "count" : 549,
            "max" : [
                0.9920096397399902,
                1.065073013305664,
                1.2570757865905762
            ],
            "min" : [
                -1.02938973903656,
                1.0318536758422852,
                -0.7579329013824463
            ],
            "type" : "VEC3"
        },
        {
            "bufferView" : 13,
            "componentType" : 5126,
            "count" : 549,
            "type" : "VEC2"
        },
        {
            "bufferView" : 14,
            "componentType" : 5126,
            "count" : 549,
            "type" : "VEC3"
        },
        {
            "bufferView" : 15,
            "componentType" : 5123,
            "count" : 840,
            "type" : "SCALAR"
        },
        {
            "bufferView" : 16,
            "componentType" : 5126,
            "count" : 332,
            "max" : [
                -0.26495814323425293,
                1.301154613494873,
                1.8388609886169434
            ],
            "min" : [
                -0.6090148091316223,
                1.0011546611785889,
                1.5443450212478638
            ],
            "type" : "VEC3"
        },
        {
            "bufferView" : 17,
            "componentType" : 5126,
            "count" : 332,
            "type" : "VEC2"
        },
        {
            "bufferView" : 18,
            "componentType" : 5126,
            "count" : 332,
            "type" : "VEC3"
        },
        {
            "bufferView" : 19,
            "componentType" : 5123,
            "count" : 1209,
            "type" : "SCALAR"
        },
        {
            "bufferView" : 20,
            "componentType" : 5126,
            "count" : 13,
            "max" : [
                -0.29768696427345276,
                1.2668888568878174,
                1.7903079986572266
            ],
            "min" : [
                -0.510921061038971,
                1.2668888568878174,
                1.5770738124847412
            ],
            "type" : "VEC3"
        },
        {
            "bufferView" : 21,
            "componentType" : 5126,
            "count" : 13,
            "type" : "VEC2"
        },
        {
            "bufferView" : 22,
            "componentType" : 5126,
            "count" : 13,
            "type" : "VEC3"
        },
        {
            "bufferView" : 23,
            "componentType" : 5123,
            "count" : 33,
            "type" : "SCALAR"
        },
        {
            "bufferView" : 24,
            "componentType" : 5126,
            "count" : 86,
            "max" : [
                0.7542333602905273,
                1.1038939952850342,
                -1.6242684125900269
            ],
            "min" : [
                0.3352939784526825,
                1.0252268314361572,
                -1.9320154190063477
            ],
            "type" : "VEC3"
        },
        {
            "bufferView" : 25,
            "componentType" : 5126,
            "count" : 86,
            "type" : "VEC2"
        },
        {
            "bufferView" : 26,
            "componentType" : 5126,
            "count" : 86,
            "type" : "VEC3"
        },
        {
            "bufferView" : 27,
            "componentType" : 5123,
            "count" : 120,
            "type" : "SCALAR"
        },
        {
            "bufferView" : 28,
            "componentType" : 5126,
            "count" : 304,
            "max" : [
                0.35831478238105774,
                1.187026858329773,
                -1.8774194717407227
            ],
            "min" : [
                0.05307716131210327,
                1.0122545957565308,
                -2.1412203311920166
            ],
            "type" : "VEC3"
        },
        {
            "bufferView" : 29,
            "componentType" : 5126,
            "count" : 304,
            "type" : "VEC2"
        },
        {
            "bufferView" : 30,
            "componentType" : 5126,
            "count" : 304,
            "type" : "VEC3"
        },
        {
            "bufferView" : 31,
            "componentType" : 5123,
            "count" : 444,
            "type" : "SCALAR"
        },
        {
            "bufferView" : 32,
            "componentType" : 5126,
            "count" : 48,
            "max" : [
                0.3214035630226135,
                1.1545493602752686,
                -1.9054068326950073
            ],
            "min" : [
                0.2044522911310196,
                1.0305838584899902,
                -2.037855386734009
            ],
            "type" : "VEC3"
        },
        {
            "bufferView" : 33,
            "componentType" : 5126,
            "count" : 48,
            "type" : "VEC2"
        },
        {
            "bufferView" : 34,
            "componentType" : 5126,
            "count" : 48,
            "type" : "VEC3"
        },
        {
            "bufferView" : 35,
            "componentType" : 5123,
            "count" : 72,
            "type" : "SCALAR"
        },
        {
            "bufferView" : 36,
            "componentType" : 5126,
            "count" : 140,
            "max" : [
                0.3041327893733978,
                1.1332296133041382,
                -0.673340916633606
            ],
            "min" : [
                -0.22560659050941467,
                0.9996252655982971,
                -1.0662968158721924
            ],
            "type" : "VEC3"
        },
        {
            "bufferView" : 37,
            "componentType" : 5126,
            "count" : 140,
            "type" : "VEC2"
        },
        {
            "bufferView" : 38,
            "componentType" : 5126,
            "count" : 140,
            "type" : "VEC3"
        },
        {
            "bufferView" : 39,
            "componentType" : 5123,
            "count" : 216,
            "type" : "SCALAR"
        },
        {
            "bufferView" : 40,
            "componentType" : 5126,
            "count" : 72,
            "max" : [
                0.3448930084705353,
                1.108069896697998,
                -0.6944962739944458
            ],
            "min" : [
                -0.21198821067810059,
                1.024785041809082,
                -1.076926589012146
            ],
            "type" : "VEC3"
        },
        {
            "bufferView" : 41,
            "componentType" : 5126,
            "count" : 72,
            "type" : "VEC2"
        },
        {
            "bufferView" : 42,
            "componentType" : 5126,
            "count" : 72,
            "type" : "VEC3"
        },
        {
            "bufferView" : 43,
            "componentType" : 5123,
            "count" : 132,
            "type" : "SCALAR"
        }
    ],
    "bufferViews" : [
        {
            "buffer" : 0,
            "byteLength" : 2232,
            "byteOffset" : 0,
            "target" : 34962
        },
        {
            "buffer" : 0,
            "byteLength" : 1488,
            "byteOffset" : 2232,
            "target" : 34962
        },
        {
            "buffer" : 0,
            "byteLength" : 2232,
            "byteOffset" : 3720,
            "target" : 34962
        },
        {
            "buffer" : 0,
            "byteLength" : 696,
            "byteOffset" : 5952,
            "target" : 34963
        },
        {
            "buffer" : 0,
            "byteLength" : 6240,
            "byteOffset" : 6648,
            "target" : 34962
        },
        {
            "buffer" : 0,
            "byteLength" : 4160,
            "byteOffset" : 12888,
            "target" : 34962
        },
        {
            "buffer" : 0,
            "byteLength" : 6240,
            "byteOffset" : 17048,
            "target" : 34962
        },
        {
            "buffer" : 0,
            "byteLength" : 1632,
            "byteOffset" : 23288,
            "target" : 34963
        },
        {
            "buffer" : 0,
            "byteLength" : 9096,
            "byteOffset" : 24920,
            "target" : 34962
        },
        {
            "buffer" : 0,
            "byteLength" : 6064,
            "byteOffset" : 34016,
            "target" : 34962
        },
        {
            "buffer" : 0,
            "byteLength" : 9096,
            "byteOffset" : 40080,
            "target" : 34962
        },
        {
            "buffer" : 0,
            "byteLength" : 2376,
            "byteOffset" : 49176,
            "target" : 34963
        },
        {
            "buffer" : 0,
            "byteLength" : 6588,
            "byteOffset" : 51552,
            "target" : 34962
        },
        {
            "buffer" : 0,
            "byteLength" : 4392,
            "byteOffset" : 58140,
            "target" : 34962
        },
        {
            "buffer" : 0,
            "byteLength" : 6588,
            "byteOffset" : 62532,
            "target" : 34962
        },
        {
            "buffer" : 0,
            "byteLength" : 1680,
            "byteOffset" : 69120,
            "target" : 34963
        },
        {
            "buffer" : 0,
            "byteLength" : 3984,
            "byteOffset" : 70800,
            "target" : 34962
        },
        {
            "buffer" : 0,
            "byteLength" : 2656,
            "byteOffset" : 74784,
            "target" : 34962
        },
        {
            "buffer" : 0,
            "byteLength" : 3984,
            "byteOffset" : 77440,
            "target" : 34962
        },
        {
            "buffer" : 0,
            "byteLength" : 2418,
            "byteOffset" : 81424,
            "target" : 34963
        },
        {
            "buffer" : 0,
            "byteLength" : 156,
            "byteOffset" : 83844,
            "target" : 34962
        },
        {
            "buffer" : 0,
            "byteLength" : 104,
            "byteOffset" : 84000,
            "target" : 34962
        },
        {
            "buffer" : 0,
            "byteLength" : 156,
            "byteOffset" : 84104,
            "target" : 34962
        },
        {
            "buffer" : 0,
            "byteLength" : 66,
            "byteOffset" : 84260,
            "target" : 34963
        },
        {
            "buffer" : 0,
            "byteLength" : 1032,
            "byteOffset" : 84328,
            "target" : 34962
        },
        {
            "buffer" : 0,
            "byteLength" : 688,
            "byteOffset" : 85360,
            "target" : 34962
        },
        {
            "buffer" : 0,
            "byteLength" : 1032,
            "byteOffset" : 86048,
            "target" : 34962
        },
        {
            "buffer" : 0,
            "byteLength" : 240,
            "byteOffset" : 87080,
            "target" : 34963
        },
        {
            "buffer" : 0,
            "byteLength" : 3648,
            "byteOffset" : 87320,
            "target" : 34962
        },
        {
            "buffer" : 0,
            "byteLength" : 2432,
            "byteOffset" : 90968,
            "target" : 34962
        },
        {
            "buffer" : 0,
            "byteLength" : 3648,
            "byteOffset" : 93400,
            "target" : 34962
        },
        {
            "buffer" : 0,
            "byteLength" : 888,
            "byteOffset" : 97048,
            "target" : 34963
        },
        {
            "buffer" : 0,
            "byteLength" : 576,
            "byteOffset" : 97936,
            "target" : 34962
        },
        {
            "buffer" : 0,
            "byteLength" : 384,
            "byteOffset" : 98512,
            "target" : 34962
        },
        {
            "buffer" : 0,
            "byteLength" : 576,
            "byteOffset" : 98896,
            "target" : 34962
        },
        {
            "buffer" : 0,
            "byteLength" : 144,
            "byteOffset" : 99472,
            "target" : 34963
        },
        {
            "buffer" : 0,
            "byteLength" : 1680,
            "byteOffset" : 99616,
            "target" : 34962
        },
        {
            "buffer" : 0,
            "byteLength" : 1120,
            "byteOffset" : 101296,
            "target" : 34962
        },
        {
            "buffer" : 0,
            "byteLength" : 1680,
            "byteOffset" : 102416,
            "target" : 34962
        },
        {
            "buffer" : 0,
            "byteLength" : 432,
            "byteOffset" : 104096,
            "target" : 34963
        },
        {
            "buffer" : 0,
            "byteLength" : 864,
            "byteOffset" : 104528,
            "target" : 34962
        },
        {
            "buffer" : 0,
            "byteLength" : 576,
            "byteOffset" : 105392,
            "target" : 34962
        },
        {
            "buffer" : 0,
            "byteLength" : 864,
            "byteOffset" : 105968,
            "target" : 34962
        },
        {
            "buffer" : 0,
            "byteLength" : 264,
            "byteOffset" : 106832,
            "target" : 34963
        }
    ],
    "buffers" : [
        {
            "byteLength" : 107096,
            "uri" : "TableBlueprint.bin"
        }
    ]
}
