{
    "asset" : {
        "generator" : "Khronos glTF Blender I/O v3.4.49",
        "version" : "2.0"
    },
    "extensionsUsed" : [
        "KHR_materials_specular",
        "KHR_materials_ior"
    ],
    "scene" : 0,
    "scenes" : [
        {
            "name" : "Scene",
            "nodes" : [
                0
            ]
        }
    ],
    "nodes" : [
        {
            "mesh" : 0,
            "name" : "Fluid storage"
        }
    ],
    "materials" : [
        {
            "doubleSided" : true,
            "extensions" : {
                "KHR_materials_specular" : {
                    "specularColorFactor" : [
                        0.9276554662109169,
                        0.9276554662109169,
                        0.9276554662109169
                    ]
                },
                "KHR_materials_ior" : {
                    "ior" : 1.4500000476837158
                }
            },
            "name" : "plastic",
            "pbrMetallicRoughness" : {
                "baseColorFactor" : [
                    0.800000011920929,
                    0.800000011920929,
                    0.800000011920929,
                    1
                ],
                "metallicFactor" : 0.07253886014223099,
                "roughnessFactor" : 0.7487046718597412
            }
        },
        {
            "doubleSided" : true,
            "name" : "Rough metal",
            "pbrMetallicRoughness" : {
                "baseColorFactor" : [
                    0.26676055788993835,
                    0.12010477483272552,
                    0.1873614490032196,
                    1
                ],
                "metallicFactor" : 0.7668393850326538,
                "roughnessFactor" : 0.13730570673942566
            }
        },
        {
            "doubleSided" : true,
            "name" : "Cap and accents",
            "pbrMetallicRoughness" : {
                "baseColorFactor" : [
                    0.5704699158668518,
                    0.06844765692949295,
                    0.0835115909576416,
                    1
                ],
                "metallicFactor" : 0,
                "roughnessFactor" : 0.5
            }
        }
    ],
    "meshes" : [
        {
            "name" : "Cube.007",
            "primitives" : [
                {
                    "attributes" : {
                        "POSITION" : 0,
                        "TEXCOORD_0" : 1,
                        "NORMAL" : 2
                    },
                    "indices" : 3,
                    "material" : 0
                },
                {
                    "attributes" : {
                        "POSITION" : 4,
                        "TEXCOORD_0" : 5,
                        "NORMAL" : 6
                    },
                    "indices" : 7,
                    "material" : 1
                },
                {
                    "attributes" : {
                        "POSITION" : 8,
                        "TEXCOORD_0" : 9,
                        "NORMAL" : 10
                    },
                    "indices" : 11,
                    "material" : 2
                }
            ]
        }
    ],
    "accessors" : [
        {
            "bufferView" : 0,
            "componentType" : 5126,
            "count" : 236,
            "max" : [
                0.8967503309249878,
                1.7935006618499756,
                0.9117520451545715
            ],
            "min" : [
                -0.9117520451545715,
                0.5474072098731995,
                -0.9117520451545715
            ],
            "type" : "VEC3"
        },
        {
            "bufferView" : 1,
            "componentType" : 5126,
            "count" : 236,
            "type" : "VEC2"
        },
        {
            "bufferView" : 2,
            "componentType" : 5126,
            "count" : 236,
            "type" : "VEC3"
        },
        {
            "bufferView" : 3,
            "componentType" : 5123,
            "count" : 384,
            "type" : "SCALAR"
        },
        {
            "bufferView" : 4,
            "componentType" : 5126,
            "count" : 1216,
            "max" : [
                1.000785231590271,
                1.7440919876098633,
                1.000785231590271
            ],
            "min" : [
                -1.000785231590271,
                0.04540571942925453,
                -1.000785231590271
            ],
            "type" : "VEC3"
        },
        {
            "bufferView" : 5,
            "componentType" : 5126,
            "count" : 1216,
            "type" : "VEC2"
        },
        {
            "bufferView" : 6,
            "componentType" : 5126,
            "count" : 1216,
            "type" : "VEC3"
        },
        {
            "bufferView" : 7,
            "componentType" : 5123,
            "count" : 2316,
            "type" : "SCALAR"
        },
        {
            "bufferView" : 8,
            "componentType" : 5126,
            "count" : 226,
            "max" : [
                0.8967503309249878,
                1.8228962421417236,
                0.8967503309249878
            ],
            "min" : [
                -0.8967503309249878,
                0,
                -0.8967503309249878
            ],
            "type" : "VEC3"
        },
        {
            "bufferView" : 9,
            "componentType" : 5126,
            "count" : 226,
            "type" : "VEC2"
        },
        {
            "bufferView" : 10,
            "componentType" : 5126,
            "count" : 226,
            "type" : "VEC3"
        },
        {
            "bufferView" : 11,
            "componentType" : 5123,
            "count" : 342,
            "type" : "SCALAR"
        }
    ],
    "bufferViews" : [
        {
            "buffer" : 0,
            "byteLength" : 2832,
            "byteOffset" : 0,
            "target" : 34962
        },
        {
            "buffer" : 0,
            "byteLength" : 1888,
            "byteOffset" : 2832,
            "target" : 34962
        },
        {
            "buffer" : 0,
            "byteLength" : 2832,
            "byteOffset" : 4720,
            "target" : 34962
        },
        {
            "buffer" : 0,
            "byteLength" : 768,
            "byteOffset" : 7552,
            "target" : 34963
        },
        {
            "buffer" : 0,
            "byteLength" : 14592,
            "byteOffset" : 8320,
            "target" : 34962
        },
        {
            "buffer" : 0,
            "byteLength" : 9728,
            "byteOffset" : 22912,
            "target" : 34962
        },
        {
            "buffer" : 0,
            "byteLength" : 14592,
            "byteOffset" : 32640,
            "target" : 34962
        },
        {
            "buffer" : 0,
            "byteLength" : 4632,
            "byteOffset" : 47232,
            "target" : 34963
        },
        {
            "buffer" : 0,
            "byteLength" : 2712,
            "byteOffset" : 51864,
            "target" : 34962
        },
        {
            "buffer" : 0,
            "byteLength" : 1808,
            "byteOffset" : 54576,
            "target" : 34962
        },
        {
            "buffer" : 0,
            "byteLength" : 2712,
            "byteOffset" : 56384,
            "target" : 34962
        },
        {
            "buffer" : 0,
            "byteLength" : 684,
            "byteOffset" : 59096,
            "target" : 34963
        }
    ],
    "buffers" : [
        {
            "byteLength" : 59780,
            "uri" : "FluidStorage.bin"
        }
    ]
}
