{
    "asset" : {
        "generator" : "Khronos glTF Blender I/O v3.4.49",
        "version" : "2.0"
    },
    "scene" : 0,
    "scenes" : [
        {
            "name" : "Scene",
            "nodes" : [
                0
            ]
        }
    ],
    "nodes" : [
        {
            "mesh" : 0,
            "name" : "palet.003"
        }
    ],
    "materials" : [
        {
            "doubleSided" : true,
            "name" : "normal area.003",
            "pbrMetallicRoughness" : {
                "baseColorFactor" : [
                    0.44797974824905396,
                    0.2991154193878174,
                    0.1801147162914276,
                    1
                ],
                "metallicFactor" : 0,
                "roughnessFactor" : 0.5
            }
        },
        {
            "doubleSided" : true,
            "name" : "dark area.003",
            "pbrMetallicRoughness" : {
                "baseColorFactor" : [
                    0.12370894849300385,
                    0.07364340871572495,
                    0.024277405813336372,
                    1
                ],
                "metallicFactor" : 0,
                "roughnessFactor" : 0.5
            }
        }
    ],
    "meshes" : [
        {
            "name" : "Cube.022",
            "primitives" : [
                {
                    "attributes" : {
                        "POSITION" : 0,
                        "TEXCOORD_0" : 1,
                        "NORMAL" : 2
                    },
                    "indices" : 3,
                    "material" : 0
                },
                {
                    "attributes" : {
                        "POSITION" : 4,
                        "TEXCOORD_0" : 5,
                        "NORMAL" : 6
                    },
                    "indices" : 7,
                    "material" : 1
                }
            ]
        }
    ],
    "accessors" : [
        {
            "bufferView" : 0,
            "componentType" : 5126,
            "count" : 604,
            "max" : [
                0.7494763731956482,
                0.1777210384607315,
                0.7507253289222717
            ],
            "min" : [
                -0.7515773773193359,
                0.007732168771326542,
                -0.7503284811973572
            ],
            "type" : "VEC3"
        },
        {
            "bufferView" : 1,
            "componentType" : 5126,
            "count" : 604,
            "type" : "VEC2"
        },
        {
            "bufferView" : 2,
            "componentType" : 5126,
            "count" : 604,
            "type" : "VEC3"
        },
        {
            "bufferView" : 3,
            "componentType" : 5123,
            "count" : 954,
            "type" : "SCALAR"
        },
        {
            "bufferView" : 4,
            "componentType" : 5126,
            "count" : 604,
            "max" : [
                0.5863157510757446,
                0.1777210384607315,
                0.7507014870643616
            ],
            "min" : [
                -0.5894842743873596,
                0.11938132345676422,
                -0.7502776980400085
            ],
            "type" : "VEC3"
        },
        {
            "bufferView" : 5,
            "componentType" : 5126,
            "count" : 604,
            "type" : "VEC2"
        },
        {
            "bufferView" : 6,
            "componentType" : 5126,
            "count" : 604,
            "type" : "VEC3"
        },
        {
            "bufferView" : 7,
            "componentType" : 5123,
            "count" : 984,
            "type" : "SCALAR"
        }
    ],
    "bufferViews" : [
        {
            "buffer" : 0,
            "byteLength" : 7248,
            "byteOffset" : 0,
            "target" : 34962
        },
        {
            "buffer" : 0,
            "byteLength" : 4832,
            "byteOffset" : 7248,
            "target" : 34962
        },
        {
            "buffer" : 0,
            "byteLength" : 7248,
            "byteOffset" : 12080,
            "target" : 34962
        },
        {
            "buffer" : 0,
            "byteLength" : 1908,
            "byteOffset" : 19328,
            "target" : 34963
        },
        {
            "buffer" : 0,
            "byteLength" : 7248,
            "byteOffset" : 21236,
            "target" : 34962
        },
        {
            "buffer" : 0,
            "byteLength" : 4832,
            "byteOffset" : 28484,
            "target" : 34962
        },
        {
            "buffer" : 0,
            "byteLength" : 7248,
            "byteOffset" : 33316,
            "target" : 34962
        },
        {
            "buffer" : 0,
            "byteLength" : 1968,
            "byteOffset" : 40564,
            "target" : 34963
        }
    ],
    "buffers" : [
        {
            "byteLength" : 42532,
            "uri" : "Palet.bin"
        }
    ]
}
