{
    "asset" : {
        "generator" : "Khronos glTF Blender I/O v3.4.49",
        "version" : "2.0"
    },
    "scene" : 0,
    "scenes" : [
        {
            "name" : "Scene",
            "nodes" : [
                0
            ]
        }
    ],
    "nodes" : [
        {
            "mesh" : 0,
            "name" : "Doorway"
        }
    ],
    "materials" : [
        {
            "doubleSided" : true,
            "name" : "Doorframe",
            "pbrMetallicRoughness" : {
                "baseColorFactor" : [
                    0.800000011920929,
                    0.800000011920929,
                    0.800000011920929,
                    1
                ],
                "metallicFactor" : 0,
                "roughnessFactor" : 0.5
            }
        },
        {
            "doubleSided" : true,
            "name" : "exit sign",
            "pbrMetallicRoughness" : {
                "baseColorFactor" : [
                    0.015395184978842735,
                    0.3185395896434784,
                    0.014078625477850437,
                    1
                ],
                "metallicFactor" : 0,
                "roughnessFactor" : 0.5
            }
        }
    ],
    "meshes" : [
        {
            "name" : "Cube.001",
            "primitives" : [
                {
                    "attributes" : {
                        "POSITION" : 0,
                        "TEXCOORD_0" : 1,
                        "NORMAL" : 2
                    },
                    "indices" : 3,
                    "material" : 0
                },
                {
                    "attributes" : {
                        "POSITION" : 4,
                        "TEXCOORD_0" : 5,
                        "NORMAL" : 6
                    },
                    "indices" : 7,
                    "material" : 1
                }
            ]
        }
    ],
    "accessors" : [
        {
            "bufferView" : 0,
            "componentType" : 5126,
            "count" : 676,
            "max" : [
                0.4645068347454071,
                3.436336040496826,
                1.5225836038589478
            ],
            "min" : [
                -0.2934723496437073,
                -0.06553031504154205,
                -1.5225836038589478
            ],
            "type" : "VEC3"
        },
        {
            "bufferView" : 1,
            "componentType" : 5126,
            "count" : 676,
            "type" : "VEC2"
        },
        {
            "bufferView" : 2,
            "componentType" : 5126,
            "count" : 676,
            "type" : "VEC3"
        },
        {
            "bufferView" : 3,
            "componentType" : 5123,
            "count" : 1104,
            "type" : "SCALAR"
        },
        {
            "bufferView" : 4,
            "componentType" : 5126,
            "count" : 183,
            "max" : [
                0.09353134036064148,
                3.519841432571411,
                0.5356774926185608
            ],
            "min" : [
                -0.2099578082561493,
                3.0102293491363525,
                -0.5356774926185608
            ],
            "type" : "VEC3"
        },
        {
            "bufferView" : 5,
            "componentType" : 5126,
            "count" : 183,
            "type" : "VEC2"
        },
        {
            "bufferView" : 6,
            "componentType" : 5126,
            "count" : 183,
            "type" : "VEC3"
        },
        {
            "bufferView" : 7,
            "componentType" : 5123,
            "count" : 336,
            "type" : "SCALAR"
        }
    ],
    "bufferViews" : [
        {
            "buffer" : 0,
            "byteLength" : 8112,
            "byteOffset" : 0,
            "target" : 34962
        },
        {
            "buffer" : 0,
            "byteLength" : 5408,
            "byteOffset" : 8112,
            "target" : 34962
        },
        {
            "buffer" : 0,
            "byteLength" : 8112,
            "byteOffset" : 13520,
            "target" : 34962
        },
        {
            "buffer" : 0,
            "byteLength" : 2208,
            "byteOffset" : 21632,
            "target" : 34963
        },
        {
            "buffer" : 0,
            "byteLength" : 2196,
            "byteOffset" : 23840,
            "target" : 34962
        },
        {
            "buffer" : 0,
            "byteLength" : 1464,
            "byteOffset" : 26036,
            "target" : 34962
        },
        {
            "buffer" : 0,
            "byteLength" : 2196,
            "byteOffset" : 27500,
            "target" : 34962
        },
        {
            "buffer" : 0,
            "byteLength" : 672,
            "byteOffset" : 29696,
            "target" : 34963
        }
    ],
    "buffers" : [
        {
            "byteLength" : 30368,
            "uri" : "Doorway.bin"
        }
    ]
}
