{
    "asset" : {
        "generator" : "Khronos glTF Blender I/O v3.4.49",
        "version" : "2.0"
    },
    "extensionsUsed" : [
        "KHR_materials_specular",
        "KHR_materials_ior"
    ],
    "scene" : 0,
    "scenes" : [
        {
            "name" : "Scene",
            "nodes" : [
                0
            ]
        }
    ],
    "nodes" : [
        {
            "mesh" : 0,
            "name" : "Mug"
        }
    ],
    "materials" : [
        {
            "doubleSided" : true,
            "name" : "ceramic",
            "pbrMetallicRoughness" : {
                "baseColorFactor" : [
                    0.800000011920929,
                    0.800000011920929,
                    0.800000011920929,
                    1
                ],
                "metallicFactor" : 0.11917097866535187,
                "roughnessFactor" : 0.05440415441989899
            }
        },
        {
            "doubleSided" : true,
            "extensions" : {
                "KHR_materials_specular" : {
                    "specularColorFactor" : [
                        0,
                        0,
                        0
                    ]
                },
                "KHR_materials_ior" : {
                    "ior" : 1.4500000476837158
                }
            },
            "name" : "sustenance",
            "pbrMetallicRoughness" : {
                "baseColorFactor" : [
                    0.11927588284015656,
                    0.03126932680606842,
                    0.01347789354622364,
                    1
                ],
                "metallicFactor" : 0
            }
        }
    ],
    "meshes" : [
        {
            "name" : "Cylinder",
            "primitives" : [
                {
                    "attributes" : {
                        "POSITION" : 0,
                        "TEXCOORD_0" : 1,
                        "NORMAL" : 2
                    },
                    "indices" : 3,
                    "material" : 0
                },
                {
                    "attributes" : {
                        "POSITION" : 4,
                        "TEXCOORD_0" : 5,
                        "NORMAL" : 6
                    },
                    "indices" : 7,
                    "material" : 1
                }
            ]
        }
    ],
    "accessors" : [
        {
            "bufferView" : 0,
            "componentType" : 5126,
            "count" : 332,
            "max" : [
                0.14000000059604645,
                0.30000001192092896,
                0.24123753607273102
            ],
            "min" : [
                -0.14000000059604645,
                0,
                -0.14000000059604645
            ],
            "type" : "VEC3"
        },
        {
            "bufferView" : 1,
            "componentType" : 5126,
            "count" : 332,
            "type" : "VEC2"
        },
        {
            "bufferView" : 2,
            "componentType" : 5126,
            "count" : 332,
            "type" : "VEC3"
        },
        {
            "bufferView" : 3,
            "componentType" : 5123,
            "count" : 1209,
            "type" : "SCALAR"
        },
        {
            "bufferView" : 4,
            "componentType" : 5126,
            "count" : 13,
            "max" : [
                0.10711754858493805,
                0.2657341957092285,
                0.10102175921201706
            ],
            "min" : [
                -0.10711754858493805,
                0.2657341957092285,
                -0.10711754858493805
            ],
            "type" : "VEC3"
        },
        {
            "bufferView" : 5,
            "componentType" : 5126,
            "count" : 13,
            "type" : "VEC2"
        },
        {
            "bufferView" : 6,
            "componentType" : 5126,
            "count" : 13,
            "type" : "VEC3"
        },
        {
            "bufferView" : 7,
            "componentType" : 5123,
            "count" : 33,
            "type" : "SCALAR"
        }
    ],
    "bufferViews" : [
        {
            "buffer" : 0,
            "byteLength" : 3984,
            "byteOffset" : 0,
            "target" : 34962
        },
        {
            "buffer" : 0,
            "byteLength" : 2656,
            "byteOffset" : 3984,
            "target" : 34962
        },
        {
            "buffer" : 0,
            "byteLength" : 3984,
            "byteOffset" : 6640,
            "target" : 34962
        },
        {
            "buffer" : 0,
            "byteLength" : 2418,
            "byteOffset" : 10624,
            "target" : 34963
        },
        {
            "buffer" : 0,
            "byteLength" : 156,
            "byteOffset" : 13044,
            "target" : 34962
        },
        {
            "buffer" : 0,
            "byteLength" : 104,
            "byteOffset" : 13200,
            "target" : 34962
        },
        {
            "buffer" : 0,
            "byteLength" : 156,
            "byteOffset" : 13304,
            "target" : 34962
        },
        {
            "buffer" : 0,
            "byteLength" : 66,
            "byteOffset" : 13460,
            "target" : 34963
        }
    ],
    "buffers" : [
        {
            "byteLength" : 13528,
            "uri" : "Coffee.bin"
        }
    ]
}
