{
    "asset" : {
        "generator" : "Khronos glTF Blender I/O v3.4.49",
        "version" : "2.0"
    },
    "scene" : 0,
    "scenes" : [
        {
            "name" : "Scene",
            "nodes" : [
                0
            ]
        }
    ],
    "nodes" : [
        {
            "mesh" : 0,
            "name" : "Bucket",
            "scale" : [
                0.7050380110740662,
                0.7050380110740662,
                0.7050380110740662
            ]
        }
    ],
    "materials" : [
        {
            "doubleSided" : true,
            "name" : "metal.002",
            "pbrMetallicRoughness" : {
                "baseColorFactor" : [
                    0.41093945503234863,
                    0.41093945503234863,
                    0.41093945503234863,
                    1
                ],
                "metallicFactor" : 0.8082901835441589,
                "roughnessFactor" : 0.5
            }
        },
        {
            "doubleSided" : true,
            "name" : "paint",
            "pbrMetallicRoughness" : {
                "baseColorFactor" : [
                    0,
                    0.018057016655802727,
                    0.8000000715255737,
                    1
                ],
                "metallicFactor" : 0,
                "roughnessFactor" : 0.5
            }
        },
        {
            "doubleSided" : true,
            "name" : "accent color",
            "pbrMetallicRoughness" : {
                "baseColorFactor" : [
                    0.137496218085289,
                    0,
                    0.0006392169161699712,
                    1
                ],
                "metallicFactor" : 0,
                "roughnessFactor" : 0.5
            }
        }
    ],
    "meshes" : [
        {
            "name" : "Cube.009",
            "primitives" : [
                {
                    "attributes" : {
                        "POSITION" : 0,
                        "TEXCOORD_0" : 1,
                        "NORMAL" : 2
                    },
                    "indices" : 3,
                    "material" : 0
                },
                {
                    "attributes" : {
                        "POSITION" : 4,
                        "TEXCOORD_0" : 5,
                        "NORMAL" : 6
                    },
                    "indices" : 7,
                    "material" : 1
                },
                {
                    "attributes" : {
                        "POSITION" : 8,
                        "TEXCOORD_0" : 9,
                        "NORMAL" : 10
                    },
                    "indices" : 11,
                    "material" : 2
                }
            ]
        }
    ],
    "accessors" : [
        {
            "bufferView" : 0,
            "componentType" : 5126,
            "count" : 114,
            "max" : [
                0.47746533155441284,
                1.517033338546753,
                0.47746533155441284
            ],
            "min" : [
                -0.46830296516418457,
                0,
                -0.47746533155441284
            ],
            "type" : "VEC3"
        },
        {
            "bufferView" : 1,
            "componentType" : 5126,
            "count" : 114,
            "type" : "VEC2"
        },
        {
            "bufferView" : 2,
            "componentType" : 5126,
            "count" : 114,
            "type" : "VEC3"
        },
        {
            "bufferView" : 3,
            "componentType" : 5123,
            "count" : 186,
            "type" : "SCALAR"
        },
        {
            "bufferView" : 4,
            "componentType" : 5126,
            "count" : 212,
            "max" : [
                0.3586788773536682,
                1,
                0.3586788773536682
            ],
            "min" : [
                -0.5891529321670532,
                0.5702534317970276,
                -0.46723511815071106
            ],
            "type" : "VEC3"
        },
        {
            "bufferView" : 5,
            "componentType" : 5126,
            "count" : 212,
            "type" : "VEC2"
        },
        {
            "bufferView" : 6,
            "componentType" : 5126,
            "count" : 212,
            "type" : "VEC3"
        },
        {
            "bufferView" : 7,
            "componentType" : 5123,
            "count" : 342,
            "type" : "SCALAR"
        },
        {
            "bufferView" : 8,
            "componentType" : 5126,
            "count" : 472,
            "max" : [
                0.49673017859458923,
                1.517033338546753,
                0.49673017859458923
            ],
            "min" : [
                -0.4939468204975128,
                0,
                -0.49673017859458923
            ],
            "type" : "VEC3"
        },
        {
            "bufferView" : 9,
            "componentType" : 5126,
            "count" : 472,
            "type" : "VEC2"
        },
        {
            "bufferView" : 10,
            "componentType" : 5126,
            "count" : 472,
            "type" : "VEC3"
        },
        {
            "bufferView" : 11,
            "componentType" : 5123,
            "count" : 726,
            "type" : "SCALAR"
        }
    ],
    "bufferViews" : [
        {
            "buffer" : 0,
            "byteLength" : 1368,
            "byteOffset" : 0,
            "target" : 34962
        },
        {
            "buffer" : 0,
            "byteLength" : 912,
            "byteOffset" : 1368,
            "target" : 34962
        },
        {
            "buffer" : 0,
            "byteLength" : 1368,
            "byteOffset" : 2280,
            "target" : 34962
        },
        {
            "buffer" : 0,
            "byteLength" : 372,
            "byteOffset" : 3648,
            "target" : 34963
        },
        {
            "buffer" : 0,
            "byteLength" : 2544,
            "byteOffset" : 4020,
            "target" : 34962
        },
        {
            "buffer" : 0,
            "byteLength" : 1696,
            "byteOffset" : 6564,
            "target" : 34962
        },
        {
            "buffer" : 0,
            "byteLength" : 2544,
            "byteOffset" : 8260,
            "target" : 34962
        },
        {
            "buffer" : 0,
            "byteLength" : 684,
            "byteOffset" : 10804,
            "target" : 34963
        },
        {
            "buffer" : 0,
            "byteLength" : 5664,
            "byteOffset" : 11488,
            "target" : 34962
        },
        {
            "buffer" : 0,
            "byteLength" : 3776,
            "byteOffset" : 17152,
            "target" : 34962
        },
        {
            "buffer" : 0,
            "byteLength" : 5664,
            "byteOffset" : 20928,
            "target" : 34962
        },
        {
            "buffer" : 0,
            "byteLength" : 1452,
            "byteOffset" : 26592,
            "target" : 34963
        }
    ],
    "buffers" : [
        {
            "byteLength" : 28044,
            "uri" : "bucket.bin"
        }
    ]
}
