{
    "asset" : {
        "generator" : "Khronos glTF Blender I/O v3.4.49",
        "version" : "2.0"
    },
    "scene" : 0,
    "scenes" : [
        {
            "name" : "Scene",
            "nodes" : [
                0
            ]
        }
    ],
    "nodes" : [
        {
            "mesh" : 0,
            "name" : "Shelf",
            "scale" : [
                1.268050193786621,
                1.1051404476165771,
                1.3062783479690552
            ]
        }
    ],
    "materials" : [
        {
            "doubleSided" : true,
            "name" : "metal",
            "pbrMetallicRoughness" : {
                "baseColorFactor" : [
                    0.019114382565021515,
                    0.005187617149204016,
                    0.031063398346304893,
                    1
                ],
                "metallicFactor" : 0,
                "roughnessFactor" : 0.5
            }
        },
        {
            "doubleSided" : true,
            "name" : "shelf",
            "pbrMetallicRoughness" : {
                "baseColorFactor" : [
                    0.8000000715255737,
                    0.7125158905982971,
                    0.43743327260017395,
                    1
                ],
                "metallicFactor" : 0,
                "roughnessFactor" : 0.5
            }
        }
    ],
    "meshes" : [
        {
            "name" : "Cube.008",
            "primitives" : [
                {
                    "attributes" : {
                        "POSITION" : 0,
                        "TEXCOORD_0" : 1,
                        "NORMAL" : 2
                    },
                    "indices" : 3,
                    "material" : 0
                },
                {
                    "attributes" : {
                        "POSITION" : 4,
                        "TEXCOORD_0" : 5,
                        "NORMAL" : 6
                    },
                    "indices" : 7,
                    "material" : 1
                },
                {
                    "attributes" : {
                        "POSITION" : 8,
                        "TEXCOORD_0" : 9,
                        "NORMAL" : 10
                    },
                    "indices" : 11,
                    "material" : 1
                }
            ]
        }
    ],
    "accessors" : [
        {
            "bufferView" : 0,
            "componentType" : 5126,
            "count" : 1301,
            "max" : [
                1.4785000085830688,
                3.9626388549804688,
                0.7290903925895691
            ],
            "min" : [
                -1.4785047769546509,
                -0.173073410987854,
                -0.7290903925895691
            ],
            "type" : "VEC3"
        },
        {
            "bufferView" : 1,
            "componentType" : 5126,
            "count" : 1301,
            "type" : "VEC2"
        },
        {
            "bufferView" : 2,
            "componentType" : 5126,
            "count" : 1301,
            "type" : "VEC3"
        },
        {
            "bufferView" : 3,
            "componentType" : 5123,
            "count" : 2913,
            "type" : "SCALAR"
        },
        {
            "bufferView" : 4,
            "componentType" : 5126,
            "count" : 805,
            "max" : [
                1.4331610202789307,
                3.6665916442871094,
                0.6322254538536072
            ],
            "min" : [
                -1.4331640005111694,
                0.3205658197402954,
                -0.6322254538536072
            ],
            "type" : "VEC3"
        },
        {
            "bufferView" : 5,
            "componentType" : 5126,
            "count" : 805,
            "type" : "VEC2"
        },
        {
            "bufferView" : 6,
            "componentType" : 5126,
            "count" : 805,
            "type" : "VEC3"
        },
        {
            "bufferView" : 7,
            "componentType" : 5123,
            "count" : 1923,
            "type" : "SCALAR"
        },
        {
            "bufferView" : 8,
            "componentType" : 5126,
            "count" : 1826,
            "max" : [
                1.2679556608200073,
                3.6665916442871094,
                0.49341651797294617
            ],
            "min" : [
                -1.2317570447921753,
                0.3205658793449402,
                -0.4680112898349762
            ],
            "type" : "VEC3"
        },
        {
            "bufferView" : 9,
            "componentType" : 5126,
            "count" : 1826,
            "type" : "VEC2"
        },
        {
            "bufferView" : 10,
            "componentType" : 5126,
            "count" : 1826,
            "type" : "VEC3"
        },
        {
            "bufferView" : 11,
            "componentType" : 5123,
            "count" : 3048,
            "type" : "SCALAR"
        }
    ],
    "bufferViews" : [
        {
            "buffer" : 0,
            "byteLength" : 15612,
            "byteOffset" : 0,
            "target" : 34962
        },
        {
            "buffer" : 0,
            "byteLength" : 10408,
            "byteOffset" : 15612,
            "target" : 34962
        },
        {
            "buffer" : 0,
            "byteLength" : 15612,
            "byteOffset" : 26020,
            "target" : 34962
        },
        {
            "buffer" : 0,
            "byteLength" : 5826,
            "byteOffset" : 41632,
            "target" : 34963
        },
        {
            "buffer" : 0,
            "byteLength" : 9660,
            "byteOffset" : 47460,
            "target" : 34962
        },
        {
            "buffer" : 0,
            "byteLength" : 6440,
            "byteOffset" : 57120,
            "target" : 34962
        },
        {
            "buffer" : 0,
            "byteLength" : 9660,
            "byteOffset" : 63560,
            "target" : 34962
        },
        {
            "buffer" : 0,
            "byteLength" : 3846,
            "byteOffset" : 73220,
            "target" : 34963
        },
        {
            "buffer" : 0,
            "byteLength" : 21912,
            "byteOffset" : 77068,
            "target" : 34962
        },
        {
            "buffer" : 0,
            "byteLength" : 14608,
            "byteOffset" : 98980,
            "target" : 34962
        },
        {
            "buffer" : 0,
            "byteLength" : 21912,
            "byteOffset" : 113588,
            "target" : 34962
        },
        {
            "buffer" : 0,
            "byteLength" : 6096,
            "byteOffset" : 135500,
            "target" : 34963
        }
    ],
    "buffers" : [
        {
            "byteLength" : 141596,
            "uri" : "ShelfLarge.bin"
        }
    ]
}
