{
    "asset" : {
        "generator" : "Khronos glTF Blender I/O v3.4.49",
        "version" : "2.0"
    },
    "scene" : 0,
    "scenes" : [
        {
            "name" : "Scene",
            "nodes" : [
                0
            ]
        }
    ],
    "nodes" : [
        {
            "mesh" : 0,
            "name" : "ShelfLarge"
        }
    ],
    "materials" : [
        {
            "doubleSided" : true,
            "name" : "metal.005",
            "pbrMetallicRoughness" : {
                "baseColorFactor" : [
                    0.019114382565021515,
                    0.005187617149204016,
                    0.031063398346304893,
                    1
                ],
                "metallicFactor" : 0,
                "roughnessFactor" : 0.5
            }
        },
        {
            "doubleSided" : true,
            "name" : "shelf.002",
            "pbrMetallicRoughness" : {
                "baseColorFactor" : [
                    0.8000000715255737,
                    0.7125158905982971,
                    0.43743327260017395,
                    1
                ],
                "metallicFactor" : 0,
                "roughnessFactor" : 0.5
            }
        }
    ],
    "meshes" : [
        {
            "name" : "Cube.006",
            "primitives" : [
                {
                    "attributes" : {
                        "POSITION" : 0,
                        "TEXCOORD_0" : 1,
                        "NORMAL" : 2
                    },
                    "indices" : 3,
                    "material" : 0
                },
                {
                    "attributes" : {
                        "POSITION" : 4,
                        "TEXCOORD_0" : 5,
                        "NORMAL" : 6
                    },
                    "indices" : 7,
                    "material" : 1
                },
                {
                    "attributes" : {
                        "POSITION" : 8,
                        "TEXCOORD_0" : 9,
                        "NORMAL" : 10
                    },
                    "indices" : 11,
                    "material" : 1
                }
            ]
        }
    ],
    "accessors" : [
        {
            "bufferView" : 0,
            "componentType" : 5126,
            "count" : 1303,
            "max" : [
                0.7500001192092896,
                3.9626388549804688,
                1.500003695487976
            ],
            "min" : [
                -0.7500001192092896,
                -0.17307336628437042,
                -1.4999990463256836
            ],
            "type" : "VEC3"
        },
        {
            "bufferView" : 1,
            "componentType" : 5126,
            "count" : 1303,
            "type" : "VEC2"
        },
        {
            "bufferView" : 2,
            "componentType" : 5126,
            "count" : 1303,
            "type" : "VEC3"
        },
        {
            "bufferView" : 3,
            "componentType" : 5123,
            "count" : 2913,
            "type" : "SCALAR"
        },
        {
            "bufferView" : 4,
            "componentType" : 5126,
            "count" : 805,
            "max" : [
                0.6252232193946838,
                3.6665916442871094,
                1.4415979385375977
            ],
            "min" : [
                -0.6252232193946838,
                0.3205658793449402,
                -1.441595435142517
            ],
            "type" : "VEC3"
        },
        {
            "bufferView" : 5,
            "componentType" : 5126,
            "count" : 805,
            "type" : "VEC2"
        },
        {
            "bufferView" : 6,
            "componentType" : 5126,
            "count" : 805,
            "type" : "VEC3"
        },
        {
            "bufferView" : 7,
            "componentType" : 5123,
            "count" : 1923,
            "type" : "SCALAR"
        },
        {
            "bufferView" : 8,
            "componentType" : 5126,
            "count" : 1826,
            "max" : [
                0.49341657757759094,
                3.6665916442871094,
                1.2317570447921753
            ],
            "min" : [
                -0.46801134943962097,
                0.3205658793449402,
                -1.2679556608200073
            ],
            "type" : "VEC3"
        },
        {
            "bufferView" : 9,
            "componentType" : 5126,
            "count" : 1826,
            "type" : "VEC2"
        },
        {
            "bufferView" : 10,
            "componentType" : 5126,
            "count" : 1826,
            "type" : "VEC3"
        },
        {
            "bufferView" : 11,
            "componentType" : 5123,
            "count" : 3048,
            "type" : "SCALAR"
        }
    ],
    "bufferViews" : [
        {
            "buffer" : 0,
            "byteLength" : 15636,
            "byteOffset" : 0,
            "target" : 34962
        },
        {
            "buffer" : 0,
            "byteLength" : 10424,
            "byteOffset" : 15636,
            "target" : 34962
        },
        {
            "buffer" : 0,
            "byteLength" : 15636,
            "byteOffset" : 26060,
            "target" : 34962
        },
        {
            "buffer" : 0,
            "byteLength" : 5826,
            "byteOffset" : 41696,
            "target" : 34963
        },
        {
            "buffer" : 0,
            "byteLength" : 9660,
            "byteOffset" : 47524,
            "target" : 34962
        },
        {
            "buffer" : 0,
            "byteLength" : 6440,
            "byteOffset" : 57184,
            "target" : 34962
        },
        {
            "buffer" : 0,
            "byteLength" : 9660,
            "byteOffset" : 63624,
            "target" : 34962
        },
        {
            "buffer" : 0,
            "byteLength" : 3846,
            "byteOffset" : 73284,
            "target" : 34963
        },
        {
            "buffer" : 0,
            "byteLength" : 21912,
            "byteOffset" : 77132,
            "target" : 34962
        },
        {
            "buffer" : 0,
            "byteLength" : 14608,
            "byteOffset" : 99044,
            "target" : 34962
        },
        {
            "buffer" : 0,
            "byteLength" : 21912,
            "byteOffset" : 113652,
            "target" : 34962
        },
        {
            "buffer" : 0,
            "byteLength" : 6096,
            "byteOffset" : 135564,
            "target" : 34963
        }
    ],
    "buffers" : [
        {
            "byteLength" : 141660,
            "uri" : "ShelfLarge.bin"
        }
    ]
}
